<svg width="20" height="21" viewBox="0 0 20 21" fill="none" xmlns="http://www.w3.org/2000/svg">
<path d="M18.7043 4.47084L14.5793 0.470836L14.0938 3.20226e-06L13.1227 0.941669L13.6082 1.4125L16.5602 4.275H0.6875H0L0 5.60834H0.6875L16.5602 5.60834L13.6082 8.47084L13.1227 8.94167L14.0938 9.88334L14.5793 9.4125L18.7043 5.4125L19.1898 4.94167L18.7043 4.47084ZM0.545703 15.1375L0.0601563 15.6083L0.545703 16.0792L4.6707 20.0792L5.15625 20.55L6.12734 19.6083L5.6418 19.1375L2.68984 16.275H18.5625H19.25V14.9417H18.5625H2.68984L5.6418 12.0792L6.12734 11.6083L5.15625 10.6667L4.6707 11.1375L0.545703 15.1375Z" fill="#9FA3AB"/>
</svg>
