<svg width="48" height="67" viewBox="0 0 48 67" fill="none" xmlns="http://www.w3.org/2000/svg">
<path d="M0.249965 12.3459C0.870095 9.76843 2.65297 6.99723 4.74591 5.35001C9.2031 1.78426 15.2106 0.0207609 22.9816 0.00138187C28.6597 -0.0373763 32.7293 0.737787 36.2757 2.50128C41.7018 5.19497 45.2094 10.3304 45.9071 16.6092C46.3915 20.8726 45.1513 25.698 42.6126 29.4382L42.0506 30.2715L42.6126 31.7443C44.1436 35.6589 44.1048 38.0231 42.477 45.019C41.7987 47.8677 41.4499 50.0188 41.663 50.0188C41.8375 50.0188 44.3567 48.5653 45.4613 47.8096C46.0233 47.422 46.6435 47.1119 46.8179 47.1119C47.3799 47.1119 48 47.6933 48 48.1971C48 48.8366 46.1202 55.3286 45.19 57.8673C43.6785 62.0726 41.508 65.9484 40.5197 66.1809C39.7058 66.3941 39.1631 65.8902 38.8143 64.6112C38.6399 63.9911 37.8841 61.7819 37.1283 59.7083C34.9773 53.8171 34.2602 51.5303 33.9114 49.4374C33.5238 47.2282 33.6207 46.86 34.6091 46.7631C35.2873 46.6856 35.8493 47.0538 37.6903 48.701C38.2523 49.2242 38.7756 49.6312 38.8725 49.6312C38.95 49.6312 39.0856 49.1855 39.1438 48.6429C39.2213 48.1002 39.7058 45.8135 40.2677 43.5655C41.2367 39.5347 41.2561 39.4184 41.1592 37.2286C41.0623 35.1938 40.4615 32.3838 40.1321 32.3838C40.0546 32.3838 39.4926 32.8295 38.8531 33.3528C35.1904 36.4147 26.7605 38.4688 20.6755 37.81C17.9043 37.5193 16.4121 37.1317 14.5323 36.2402C12.6138 35.3294 11.3348 34.1085 10.5403 32.4226C8.25352 27.539 11.1604 21.9966 17.7105 18.7409C20.2104 17.5007 20.8693 17.365 24.0668 17.365C27.2256 17.3844 28.4078 17.617 30.9658 18.7409C34.1246 20.1169 38.388 23.7214 40.0546 26.4151C40.4228 27.0352 40.8104 27.5003 40.9266 27.4809C41.2755 27.4034 42.7677 24.1865 43.1359 22.6943C43.756 20.2719 43.9498 17.9464 43.7172 16.086C43.3296 12.966 42.225 10.6211 40.0546 8.29562C37.1283 5.15622 33.1944 3.23769 27.7489 2.30749C25.7722 1.97805 24.9195 1.91991 22.032 2.01681C19.7066 2.09432 18.1175 2.24935 16.9741 2.52066C9.35813 4.26478 4.06764 8.25687 1.2383 14.4194C0.792581 15.369 0.443756 15.9116 0.288724 15.8728C-0.0794785 15.7566 -0.0988584 13.7218 0.249965 12.3459ZM12.2262 30.1165C13.0014 32.2675 15.8889 34.1279 19.9391 35.0194C21.7414 35.4263 26.4311 35.4845 28.4271 35.1163C31.3534 34.5736 34.1827 33.5466 35.9268 32.3644C37.1283 31.5505 38.8918 30.0777 38.8918 29.8839C38.8918 29.4382 36.7601 26.5507 35.4424 25.2329C32.303 22.0548 28.8729 20.4463 24.8033 20.2331C21.4119 20.0587 19.2221 20.6595 16.7028 22.423C14.3192 24.0896 11.9743 27.3453 11.9743 28.9925C11.9743 29.2056 12.0906 29.7095 12.2262 30.1165ZM38.8337 57.5766C39.3763 59.0107 39.9189 60.5222 40.074 60.9292C40.2096 61.3168 40.4034 61.6462 40.4809 61.6462C40.7135 61.6462 41.4886 59.999 42.3607 57.751C43.1552 55.6387 44.5311 51.1815 44.3955 51.1815C44.1242 51.1815 42.3219 52.228 41.4111 52.9062C40.8297 53.352 40.1709 53.7008 39.9383 53.7008C39.4926 53.7008 38.2911 52.8869 37.5547 52.0729C37.2834 51.8016 37.0121 51.5691 36.9345 51.5691C36.7601 51.5691 37.6128 54.2628 38.8337 57.5766Z" fill="black"/>
</svg>
