<svg width="20" height="16" viewBox="0 0 20 16" fill="none" xmlns="http://www.w3.org/2000/svg">
<g clip-path="url(#clip0_6_2)">
<path d="M8.59063 1.07188C7.7125 0.193753 6.2875 0.193753 5.40938 1.07188L1.07188 5.40938C0.193753 6.2875 0.193753 7.7125 1.07188 8.59063L5.40938 12.9281C6.2875 13.8063 7.7125 13.8063 8.59063 12.9281L12.9281 8.59063C13.8063 7.7125 13.8063 6.2875 12.9281 5.40938L8.59063 1.07188ZM6.25 7C6.25 6.80109 6.32902 6.61032 6.46967 6.46967C6.61032 6.32902 6.80109 6.25 7 6.25C7.19892 6.25 7.38968 6.32902 7.53033 6.46967C7.67099 6.61032 7.75 6.80109 7.75 7C7.75 7.19892 7.67099 7.38968 7.53033 7.53033C7.38968 7.67099 7.19892 7.75 7 7.75C6.80109 7.75 6.61032 7.67099 6.46967 7.53033C6.32902 7.38968 6.25 7.19892 6.25 7ZM3 6.25C3.19892 6.25 3.38968 6.32902 3.53033 6.46967C3.67099 6.61032 3.75 6.80109 3.75 7C3.75 7.19892 3.67099 7.38968 3.53033 7.53033C3.38968 7.67099 3.19892 7.75 3 7.75C2.80109 7.75 2.61033 7.67099 2.46967 7.53033C2.32902 7.38968 2.25 7.19892 2.25 7C2.25 6.80109 2.32902 6.61032 2.46967 6.46967C2.61033 6.32902 2.80109 6.25 3 6.25ZM7 11.75C6.80109 11.75 6.61032 11.671 6.46967 11.5303C6.32902 11.3897 6.25 11.1989 6.25 11C6.25 10.8011 6.32902 10.6103 6.46967 10.4697C6.61032 10.329 6.80109 10.25 7 10.25C7.19892 10.25 7.38968 10.329 7.53033 10.4697C7.67099 10.6103 7.75 10.8011 7.75 11C7.75 11.1989 7.67099 11.3897 7.53033 11.5303C7.38968 11.671 7.19892 11.75 7 11.75ZM11 6.25C11.1989 6.25 11.3897 6.32902 11.5303 6.46967C11.671 6.61032 11.75 6.80109 11.75 7C11.75 7.19892 11.671 7.38968 11.5303 7.53033C11.3897 7.67099 11.1989 7.75 11 7.75C10.8011 7.75 10.6103 7.67099 10.4697 7.53033C10.329 7.38968 10.25 7.19892 10.25 7C10.25 6.80109 10.329 6.61032 10.4697 6.46967C10.6103 6.32902 10.8011 6.25 11 6.25ZM7 3.75C6.80109 3.75 6.61032 3.67099 6.46967 3.53033C6.32902 3.38968 6.25 3.19892 6.25 3C6.25 2.80109 6.32902 2.61033 6.46967 2.46967C6.61032 2.32902 6.80109 2.25 7 2.25C7.19892 2.25 7.38968 2.32902 7.53033 2.46967C7.67099 2.61033 7.75 2.80109 7.75 3C7.75 3.19892 7.67099 3.38968 7.53033 3.53033C7.38968 3.67099 7.19892 3.75 7 3.75ZM10 14C10 15.1031 10.8969 16 12 16H18C19.1031 16 20 15.1031 20 14V8C20 6.89688 19.1031 6 18 6H14.4281C14.7906 7.125 14.525 8.40625 13.6344 9.29688L10 12.9313V14ZM15 10.25C15.1989 10.25 15.3897 10.329 15.5303 10.4697C15.671 10.6103 15.75 10.8011 15.75 11C15.75 11.1989 15.671 11.3897 15.5303 11.5303C15.3897 11.671 15.1989 11.75 15 11.75C14.8011 11.75 14.6103 11.671 14.4697 11.5303C14.329 11.3897 14.25 11.1989 14.25 11C14.25 10.8011 14.329 10.6103 14.4697 10.4697C14.6103 10.329 14.8011 10.25 15 10.25Z" fill="#37BAED"/>
</g>
<defs>
<clipPath id="clip0_6_2">
<rect width="20" height="16" fill="white"/>
</clipPath>
</defs>
</svg>
