<svg width="26" height="21" viewBox="0 0 26 21" fill="none" xmlns="http://www.w3.org/2000/svg">
<g clip-path="url(#clip0_16_95)">
<path d="M10.2498 2.33789C9.61603 1.69805 8.58821 1.69805 7.9504 2.33789L2.31571 8.02676C1.68196 8.6666 1.68196 9.7043 2.31571 10.3482L7.9504 16.0371C8.58415 16.677 9.61196 16.677 10.2498 16.0371L15.8845 10.3482C16.5182 9.7084 16.5182 8.6707 15.8845 8.02676L10.2498 2.33789ZM7.03228 1.40684C8.17384 0.254297 10.0263 0.254297 11.1679 1.40684L16.8067 7.0998C17.9482 8.25234 17.9482 10.1227 16.8067 11.2752L11.1679 16.9682C10.0263 18.1207 8.17384 18.1207 7.03228 16.9682L1.39353 11.2752C0.251963 10.1227 0.251963 8.25234 1.39353 7.0998L7.03228 1.40684ZM13.0001 18.375V16.9723L14.3001 15.6598V18.375C14.3001 19.101 14.881 19.6875 15.6001 19.6875H23.4001C24.1192 19.6875 24.7001 19.101 24.7001 18.375V10.5C24.7001 9.77402 24.1192 9.1875 23.4001 9.1875H18.9598C18.9598 8.74453 18.8907 8.30156 18.7567 7.875H23.4001C24.8342 7.875 26.0001 9.05215 26.0001 10.5V18.375C26.0001 19.8229 24.8342 21 23.4001 21H15.6001C14.166 21 13.0001 19.8229 13.0001 18.375ZM19.5001 13.4531C19.7587 13.4531 20.0067 13.5568 20.1895 13.7414C20.3724 13.926 20.4751 14.1764 20.4751 14.4375C20.4751 14.6986 20.3724 14.949 20.1895 15.1336C20.0067 15.3182 19.7587 15.4219 19.5001 15.4219C19.2415 15.4219 18.9935 15.3182 18.8107 15.1336C18.6278 14.949 18.5251 14.6986 18.5251 14.4375C18.5251 14.1764 18.6278 13.926 18.8107 13.7414C18.9935 13.5568 19.2415 13.4531 19.5001 13.4531ZM9.10009 5.90625C8.8415 5.90625 8.59351 5.80254 8.41066 5.61793C8.22781 5.43333 8.12509 5.18295 8.12509 4.92188C8.12509 4.6608 8.22781 4.41042 8.41066 4.22582C8.59351 4.04121 8.8415 3.9375 9.10009 3.9375C9.35867 3.9375 9.60667 4.04121 9.78952 4.22582C9.97237 4.41042 10.0751 4.6608 10.0751 4.92188C10.0751 5.18295 9.97237 5.43333 9.78952 5.61793C9.60667 5.80254 9.35867 5.90625 9.10009 5.90625ZM4.87509 8.20312C5.13367 8.20312 5.38167 8.30684 5.56452 8.49144C5.74737 8.67605 5.85009 8.92643 5.85009 9.1875C5.85009 9.44857 5.74737 9.69895 5.56452 9.88356C5.38167 10.0682 5.13367 10.1719 4.87509 10.1719C4.6165 10.1719 4.36851 10.0682 4.18566 9.88356C4.00281 9.69895 3.90009 9.44857 3.90009 9.1875C3.90009 8.92643 4.00281 8.67605 4.18566 8.49144C4.36851 8.30684 4.6165 8.20312 4.87509 8.20312ZM9.10009 8.20312C9.35867 8.20312 9.60667 8.30684 9.78952 8.49144C9.97237 8.67605 10.0751 8.92643 10.0751 9.1875C10.0751 9.44857 9.97237 9.69895 9.78952 9.88356C9.60667 10.0682 9.35867 10.1719 9.10009 10.1719C8.8415 10.1719 8.59351 10.0682 8.41066 9.88356C8.22781 9.69895 8.12509 9.44857 8.12509 9.1875C8.12509 8.92643 8.22781 8.67605 8.41066 8.49144C8.59351 8.30684 8.8415 8.20312 9.10009 8.20312ZM9.10009 14.4375C8.8415 14.4375 8.59351 14.3338 8.41066 14.1492C8.22781 13.9646 8.12509 13.7142 8.12509 13.4531C8.12509 13.1921 8.22781 12.9417 8.41066 12.7571C8.59351 12.5725 8.8415 12.4687 9.10009 12.4687C9.35867 12.4687 9.60667 12.5725 9.78952 12.7571C9.97237 12.9417 10.0751 13.1921 10.0751 13.4531C10.0751 13.7142 9.97237 13.9646 9.78952 14.1492C9.60667 14.3338 9.35867 14.4375 9.10009 14.4375ZM13.3251 8.20312C13.5837 8.20312 13.8317 8.30684 14.0145 8.49144C14.1974 8.67605 14.3001 8.92643 14.3001 9.1875C14.3001 9.44857 14.1974 9.69895 14.0145 9.88356C13.8317 10.0682 13.5837 10.1719 13.3251 10.1719C13.0665 10.1719 12.8185 10.0682 12.6357 9.88356C12.4528 9.69895 12.3501 9.44857 12.3501 9.1875C12.3501 8.92643 12.4528 8.67605 12.6357 8.49144C12.8185 8.30684 13.0665 8.20312 13.3251 8.20312Z" fill="#9DA3AB"/>
</g>
<defs>
<clipPath id="clip0_16_95">
<rect width="26" height="21" fill="white"/>
</clipPath>
</defs>
</svg>
